<svg width="48" height="42" viewBox="0 0 48 42" fill="none" xmlns="http://www.w3.org/2000/svg">
<path d="M12.797 24C11.9063 24 11.1938 23.2781 11.1938 22.3875C11.1938 21.9844 11.3532 21.5906 11.6251 21.3L16.5001 16.2C17.1001 15.5625 18.1032 15.525 18.7501 16.1062L21.4688 18.5812L26.147 13.9031C26.447 13.5844 26.8782 13.4156 27.3188 13.4344C27.7501 13.4437 28.1626 13.6406 28.4626 13.9594L30.1688 15.8625L34.097 11.6906C34.7626 11.1094 35.7845 11.1844 36.3657 11.85C36.8626 12.4219 36.8907 13.275 36.422 13.8844L31.247 19.3031C30.9282 19.6125 30.5063 19.7812 30.0657 19.8C29.6157 19.7906 29.1938 19.6031 28.8938 19.275L27.1407 17.325L22.6407 21.825C22.022 22.4062 21.0563 22.4062 20.4376 21.825L17.7657 19.3781L13.9688 23.5031C13.6595 23.8219 13.2376 24.0094 12.797 24Z" fill="#CCC3CF"/>
<path d="M40.0031 0H7.99688C3.58125 0.009375 0.009375 3.58125 0 7.99688V27.2156C0.009375 31.6313 3.58125 35.2031 7.99688 35.2125H22.3969V38.4094H19.2C18.3188 38.4938 17.6719 39.2813 17.7562 40.1625C17.8312 40.9219 18.4312 41.5313 19.2 41.6063H28.8C29.6813 41.5219 30.3281 40.7344 30.2438 39.8531C30.1688 39.0938 29.5688 38.4844 28.8 38.4094H25.6031V33.6094C25.5938 32.7281 24.8813 32.0156 24 32.0156H7.99688C5.34375 32.0156 3.19687 29.8688 3.19687 27.2156V7.99688C3.19687 5.34375 5.34375 3.19688 7.99688 3.19688H40.0031C42.6562 3.19688 44.8031 5.34375 44.8031 7.99688V27.2156C44.8031 29.8688 42.6562 32.0156 40.0031 32.0156H28.8C27.9188 32.1 27.2719 32.8875 27.3562 33.7688C27.4312 34.5281 28.0313 35.1375 28.8 35.2125H40.0031C44.4188 35.2031 47.9906 31.6313 48 27.2156V7.99688C47.9906 3.58125 44.4188 0.009375 40.0031 0Z" fill="#CCC3CF"/>
</svg>
