<svg width="36" height="48" viewBox="0 0 36 48" fill="none" xmlns="http://www.w3.org/2000/svg">
<path d="M29.2781 0.25224C29.2219 0.23349 29.1656 0.224115 29.1094 0.205365C28.2375 0.0366149 27.3937 0.599115 27.225 1.47099C27.0562 2.34286 27.6187 3.18661 28.4906 3.35536C30.6094 3.89911 32.0906 5.80224 32.0906 7.98661V39.9929C32.0906 42.646 29.9437 44.7929 27.2906 44.7929H7.99687C5.34375 44.7929 3.19687 42.646 3.19687 39.9929V7.99599C3.19687 5.34286 5.34375 3.19599 7.99687 3.19599H12.1969L13.3781 4.34911C13.6781 4.63974 14.0719 4.79911 14.4844 4.79911H20.8875C21.3094 4.79911 21.7125 4.63036 22.0125 4.33036L23.6344 2.72724C23.9344 2.42724 24.0937 2.01474 24.0937 1.59286C24.0844 0.70224 23.3625 -0.0102601 22.4812 -0.000885098H7.99687C3.58125 0.0084899 0.009375 3.58036 0 7.99599V40.0022C0.009375 44.4179 3.58125 47.9897 7.99687 47.9991H27.2812C31.6969 47.9897 35.2687 44.4179 35.2781 40.0022V7.99599C35.2875 4.34911 32.8125 1.16161 29.2781 0.25224Z" fill="#CCC3CF"/>
<path d="M16.1435 38.4C15.3842 38.475 14.7748 39.075 14.6998 39.8438C14.6154 40.725 15.2623 41.5125 16.1435 41.5969H19.2935C20.0529 41.5219 20.6623 40.9219 20.7373 40.1531C20.8216 39.2719 20.1748 38.4844 19.2935 38.4H16.1435Z" fill="#CCC3CF"/>
<path d="M22.3968 16.0031C22.3124 15.1219 21.5249 14.475 20.6436 14.5594C19.8843 14.6344 19.2749 15.2344 19.1999 16.0031V17.6062H15.9936V16.0031C16.078 15.1219 15.4311 14.3344 14.5499 14.25C13.6686 14.1656 12.8811 14.8125 12.7968 15.6937C12.7874 15.7969 12.7874 15.9 12.7968 16.0031V20.8031C12.8811 21.6844 13.6686 22.3312 14.5499 22.2469C15.3093 22.1719 15.9186 21.5719 15.9936 20.8031H19.1436C19.228 21.6844 20.0155 22.3312 20.8968 22.2469C21.6561 22.1719 22.2655 21.5719 22.3405 20.8031H23.9436V25.6031C23.9436 26.4937 23.2218 27.2062 22.3405 27.2062H12.8436C11.953 27.2062 11.2405 26.4844 11.2405 25.6031V19.2C11.3249 18.3187 10.678 17.5312 9.79678 17.4469C8.91553 17.3625 8.12803 18.0094 8.04365 18.8906C8.03428 18.9937 8.03428 19.0969 8.04365 19.2V25.6031C8.04365 28.2562 10.1905 30.4031 12.8436 30.4031H22.3968C25.0499 30.4031 27.1968 28.2562 27.1968 25.6031V19.2C27.1968 18.3094 26.4749 17.5969 25.5936 17.5969H22.3968V16.0031Z" fill="#CCC3CF"/>
</svg>
