<svg width="48" height="44" viewBox="0 0 48 44" fill="none" xmlns="http://www.w3.org/2000/svg">
<g clip-path="url(#clip0_18_480)">
<path d="M46.5564 4.32046C46.454 4.31115 46.3516 4.31115 46.2491 4.32046H20.9223C20.047 4.40426 19.4045 5.18641 19.4883 6.06168C19.5628 6.8159 20.1587 7.42114 20.9223 7.49563H46.2491C47.1244 7.57943 47.9066 6.93695 47.9904 6.06168C48.0742 5.18641 47.4317 4.40426 46.5564 4.32046Z" fill="#CCC3CF"/>
<path d="M1.44374 7.49564C1.54616 7.50495 1.64859 7.50495 1.75101 7.49564H4.93549C5.1869 8.17536 5.58729 8.78991 6.10872 9.28341L7.22608 10.4194C9.08835 12.2817 12.1052 12.2817 13.9675 10.4287C13.9675 10.4287 13.9675 10.4287 13.9768 10.4194L15.0476 9.28341C16.9099 7.42114 16.9099 4.40427 15.0569 2.542C15.0569 2.542 15.0569 2.542 15.0476 2.53269L13.9209 1.3967C12.0587 -0.465567 9.0418 -0.465567 7.17953 1.3967C7.17953 1.3967 7.17953 1.3967 7.17022 1.40601L6.11803 2.53269C5.62453 3.0355 5.24277 3.65005 5.01929 4.32047H1.76032C0.875746 4.23666 0.0935933 4.87915 0.00979117 5.75441C-0.0740109 6.62968 0.568472 7.41183 1.44374 7.49564ZM8.28758 4.78603H8.3062L9.42356 3.65005C10.0474 3.02619 11.053 3.02619 11.6769 3.65005L12.8129 4.78603C13.4367 5.40989 13.4367 6.41552 12.8129 7.03938L11.6955 8.17536C11.0717 8.79922 10.066 8.79922 9.44218 8.17536L8.32482 7.03938C7.69165 6.41552 7.68234 5.40989 8.28758 4.78603Z" fill="#CCC3CF"/>
<path d="M34.1074 23.3715C34.2099 23.3808 34.3123 23.3808 34.4147 23.3715H46.3332C47.2085 23.2877 47.851 22.5055 47.7672 21.6303C47.6927 20.876 47.0968 20.2708 46.3332 20.1963H46.2308H34.424C33.5488 20.1125 32.7666 20.755 32.6828 21.6303C32.5897 22.5148 33.2322 23.2877 34.1074 23.3715Z" fill="#CCC3CF"/>
<path d="M0.31692 21.9841C0.391411 22.7383 0.987337 23.3436 1.75087 23.4181V23.3901H18.3902C18.623 24.0605 18.9955 24.6751 19.489 25.1779L20.6063 26.3139C22.4686 28.1762 25.4855 28.1762 27.3478 26.3232C27.3478 26.3232 27.3478 26.3232 27.3571 26.3139L28.4744 25.1779C30.3274 23.3156 30.3274 20.3081 28.4744 18.4458L27.3571 17.3284C25.4948 15.4662 22.4779 15.4662 20.6157 17.3191C20.6157 17.3191 20.6157 17.3191 20.6063 17.3284L19.489 18.4644C18.9955 18.9672 18.6137 19.5818 18.3902 20.2522H1.75087C0.875601 20.3267 0.233118 21.1088 0.31692 21.9841ZM21.7423 20.6805H21.761L22.8783 19.5445C23.5022 18.9207 24.5078 18.9207 25.1317 19.5445L26.2676 20.6805C26.8915 21.3044 26.8915 22.31 26.2676 22.9339L25.1503 24.0699C24.5264 24.6937 23.5208 24.6937 22.8969 24.0699L21.7796 22.9339C21.1464 22.31 21.1278 21.3044 21.7423 20.6805Z" fill="#CCC3CF"/>
<path d="M40.8116 33.195C38.9494 31.3327 35.9325 31.3327 34.0702 33.1856C34.0702 33.1856 34.0702 33.1856 34.0609 33.195L32.9249 34.3123C32.4314 34.8151 32.0496 35.4297 31.8262 36.1001H1.75052C0.875258 36.0163 0.093105 36.6588 0.0093029 37.534C-0.0744992 38.4093 0.567984 39.1915 1.44325 39.2753C1.54568 39.2846 1.6481 39.2846 1.75052 39.2753H31.8448C32.0776 39.9457 32.45 40.5602 32.9435 41.063L34.0609 42.199C35.9232 44.0613 38.94 44.0613 40.8023 42.2083C40.8023 42.2083 40.8023 42.2083 40.8116 42.199L41.929 41.063C43.7819 39.2008 43.7819 36.1932 41.929 34.3309L40.8116 33.195ZM39.6943 38.8097L38.5769 39.9457C37.953 40.5695 36.9474 40.5695 36.3236 39.9457L35.2062 38.8097C34.5823 38.1858 34.5823 37.1802 35.2062 36.5563L36.3236 35.4204C36.9474 34.7965 37.953 34.7965 38.5769 35.4204L39.7129 36.5563C40.3274 37.1895 40.3181 38.1951 39.6943 38.8097Z" fill="#CCC3CF"/>
<path d="M45.076 36.5563C44.9364 36.7053 44.8246 36.8822 44.7501 37.0778C44.6756 37.2733 44.6291 37.4782 44.6384 37.683C44.6477 38.5676 45.3647 39.2753 46.2399 39.2659C46.6496 39.2566 47.0407 39.089 47.3294 38.8004C47.6366 38.5117 47.8042 38.102 47.7949 37.683C47.7949 37.264 47.6273 36.8636 47.3387 36.575C46.7055 35.9511 45.6999 35.9418 45.076 36.5563Z" fill="#CCC3CF"/>
</g>
<defs>
<clipPath id="clip0_18_480">
<rect width="48" height="43.5864" fill="white"/>
</clipPath>
</defs>
</svg>
