<svg width="45" height="48" viewBox="0 0 45 48" fill="none" xmlns="http://www.w3.org/2000/svg">
<g clip-path="url(#clip0_18_521)">
<path d="M28.6143 18.485L28.5955 18.4382L36.0985 10.9352C36.7081 10.2975 36.7081 9.29396 36.0985 8.65621C35.4982 8.06535 35.1606 7.24941 35.17 6.40533C35.17 4.63276 36.6049 3.19783 38.3775 3.19783C40.1501 3.19783 41.585 4.63276 41.585 6.40533C41.5944 7.64331 40.8816 8.77813 39.7562 9.30334C38.9683 9.716 38.6776 10.6914 39.0903 11.4698C39.4842 12.2107 40.3658 12.5202 41.1348 12.192C44.3329 10.6726 45.6928 6.85551 44.1735 3.65738C42.6542 0.468637 38.837 -0.900648 35.6389 0.618696C33.3974 1.67848 31.9719 3.93874 31.9812 6.42409C32 7.54953 32.3095 8.65621 32.9003 9.62221L26.3447 16.1967C23.0152 13.8145 18.551 13.8145 15.2216 16.1967L10.7198 11.6949C11.0293 11.0384 11.1794 10.3162 11.17 9.59408C11.1606 6.93054 9.0129 4.78282 6.35873 4.78282C3.70457 4.78282 1.55686 6.93054 1.55686 9.5847C1.55686 12.2389 3.70457 14.3866 6.35873 14.3866C7.07151 14.3866 7.77491 14.2178 8.41266 13.9083L13.9836 19.4886C14.6213 20.0794 15.5967 20.0794 16.2345 19.4886C18.7292 16.9751 22.7808 16.9657 25.2943 19.4604C27.8077 21.9552 27.8171 26.0067 25.3224 28.5202C22.8277 31.0337 18.7761 31.0431 16.2626 28.5484C15.0434 27.3385 14.3681 25.6972 14.3681 23.9903C14.3681 23.6058 14.3962 23.2213 14.4713 22.8461C14.7245 21.9927 14.2368 21.1017 13.3834 20.8485C12.5299 20.5952 11.6389 21.0829 11.3857 21.9364C11.3576 22.0302 11.3388 22.1146 11.3294 22.2084C11.2169 22.7899 11.1606 23.3807 11.1606 23.9809C11.1606 26.2787 11.9953 28.5015 13.5053 30.2365L10.1852 34.2693C9.24736 33.8192 8.22509 33.5847 7.18406 33.5753C3.22626 33.5941 0 36.8203 0 40.7969C0 44.7734 3.22626 47.9997 7.20281 47.9997C11.1794 47.9997 14.4056 44.7734 14.4056 40.7969C14.3869 39.1462 13.796 37.5612 12.7362 36.2951L15.9906 32.3373C20.5768 34.9915 26.4385 33.4253 29.0926 28.8391C30.9777 25.5847 30.7902 21.5425 28.6143 18.485ZM6.37749 11.1884C6.36811 11.1884 6.36811 11.1884 6.35873 11.1884C5.47714 11.1791 4.76436 10.4663 4.76436 9.5847C4.76436 8.69372 5.48652 7.98095 6.36811 7.98095C7.25909 7.98095 7.97186 8.7031 7.97186 9.5847C7.98124 10.4757 7.26846 11.1884 6.37749 11.1884ZM7.18406 44.8016C4.97069 44.811 3.16999 43.0196 3.16061 40.8063C3.15123 38.5929 4.94256 36.7922 7.15592 36.7828C9.36929 36.7734 11.17 38.5648 11.1794 40.7781C11.1794 40.7875 11.1794 40.7875 11.1794 40.7969C11.1794 43.0103 9.39742 44.8016 7.18406 44.8016Z" fill="white"/>
<path d="M40.7502 30.8933C40.0186 30.6026 39.2496 30.4525 38.4618 30.4525L38.3868 30.4244C36.9049 30.4338 35.4794 30.9684 34.3539 31.925L31.7842 30.0023C31.062 29.4771 30.0585 29.646 29.5333 30.3587C29.0081 31.0715 29.1769 32.0844 29.8897 32.6096L32.4595 34.5041C31.1652 37.7866 32.7783 41.5006 36.0702 42.7948C39.3528 44.0891 43.0667 42.476 44.361 39.1841C45.6552 35.8921 44.0327 32.1782 40.7502 30.8933ZM38.3868 40V40.0188C36.6236 40.0188 35.1886 38.5838 35.1886 36.8206C35.1886 35.0574 36.6236 33.6225 38.3868 33.6225C40.1499 33.6225 41.5849 35.0574 41.5849 36.8206C41.5661 38.5744 40.1406 40 38.3868 40Z" fill="white"/>
</g>
<defs>
<clipPath id="clip0_18_521">
<rect width="44.8019" height="48" fill="white"/>
</clipPath>
</defs>
</svg>
