<svg width="48" height="48" viewBox="0 0 48 48" fill="none" xmlns="http://www.w3.org/2000/svg">
<path d="M17.6063 33.6C18.4875 33.6 19.2 32.8875 19.2 32.0062C19.2 31.125 18.4875 30.4125 17.6063 30.4125C16.7344 30.4219 16.0312 31.1344 16.0312 32.0062C16.0312 32.8687 16.7344 33.5812 17.6063 33.6Z" fill="#CCC3CF"/>
<path d="M23.9999 30.4031C23.128 30.4125 22.4249 31.125 22.4249 31.9969C22.4155 32.8875 23.128 33.6094 24.0187 33.6188C24.9093 33.6281 25.6312 32.9156 25.6405 32.025C25.6499 31.1344 24.9374 30.4125 24.0468 30.4031C24.028 30.4031 24.0187 30.4031 23.9999 30.4031Z" fill="#CCC3CF"/>
<path d="M30.4313 30.4031H30.4032C29.5313 30.4125 28.8282 31.125 28.8282 31.9969C28.8188 32.8875 29.5313 33.6094 30.422 33.6188C31.3126 33.6281 32.0345 32.9156 32.0438 32.025C32.0532 31.1344 31.3407 30.4125 30.4501 30.4031C30.4407 30.4031 30.4407 30.4031 30.4313 30.4031Z" fill="#CCC3CF"/>
<path d="M17.5968 28.8188C18.4874 28.8281 19.2093 28.1156 19.2186 27.225C19.228 26.3344 18.5155 25.6125 17.6249 25.6031C17.6155 25.6031 17.6155 25.6031 17.6061 25.6031H17.578C16.7061 25.6125 16.003 26.325 16.003 27.1969C15.9936 28.0781 16.7061 28.8094 17.5968 28.8188Z" fill="#CCC3CF"/>
<path d="M24.0468 25.6031C24.028 25.6031 24.0186 25.6031 23.9999 25.6031C23.128 25.6125 22.4249 26.325 22.4249 27.1969C22.4155 28.0875 23.128 28.8094 24.0186 28.8188C24.9093 28.8281 25.6311 28.1156 25.6405 27.225C25.6499 26.3344 24.928 25.6125 24.0468 25.6031Z" fill="#CCC3CF"/>
<path d="M30.4501 25.6031C30.4407 25.6031 30.4407 25.6031 30.4313 25.6031H30.4032C29.5313 25.6125 28.8282 26.325 28.8282 27.1969C28.8188 28.0875 29.5313 28.8094 30.422 28.8188C31.3126 28.8281 32.0345 28.1156 32.0438 27.225C32.0438 26.3344 31.3407 25.6125 30.4501 25.6031Z" fill="#CCC3CF"/>
<path d="M40.0031 0H36.7969C35.9156 0.084375 35.2687 0.871875 35.3531 1.75313C35.4281 2.5125 36.0281 3.12187 36.7969 3.19687H39.9938C42.6469 3.19687 44.7937 5.34375 44.7937 7.99688V38.4C44.7937 41.0531 42.6469 43.2 39.9938 43.2H7.99688C5.34375 43.2 3.19687 41.0531 3.19687 38.4V7.99688C3.19687 5.34375 5.34375 3.19687 7.99688 3.19687H30.4031C31.2844 3.1125 31.9313 2.325 31.8469 1.44375C31.7719 0.684375 31.1719 0.075 30.4031 0H7.99688C3.58125 0.009375 0.009375 3.58125 0 7.99688V38.4C0.009375 42.8156 3.58125 46.3875 7.99688 46.3969C7.99688 47.2875 8.71875 48 9.6 48H38.4C39.2906 48 40.0031 47.2781 40.0031 46.3969C44.4188 46.3875 47.9906 42.8156 48 38.4V7.99688C47.9906 3.58125 44.4188 0.009375 40.0031 0Z" fill="#CCC3CF"/>
<path d="M38.4002 40.0031C40.1627 39.9938 41.5877 38.5688 41.5971 36.8063V9.60001C41.5877 7.83751 40.1627 6.41251 38.4002 6.40314H9.60019C7.8377 6.41251 6.4127 7.83751 6.40332 9.60001V36.7969C6.40332 38.5594 7.82832 40.0031 9.60019 40.0031H12.7971C13.6783 39.9188 14.3252 39.1313 14.2408 38.25C14.1658 37.4906 13.5658 36.8813 12.7971 36.8063H9.60019V9.60001H38.4002V36.7969H19.2002C18.3189 36.8813 17.6721 37.6688 17.7564 38.55C17.8314 39.3094 18.4314 39.9188 19.2002 39.9938V40.0125H38.4002V40.0031Z" fill="#CCC3CF"/>
<path d="M33.5999 19.2V16.0031C33.5905 14.2406 32.1655 12.8156 30.403 12.8063H17.5968C15.8343 12.8156 14.4093 14.2406 14.3999 16.0031V19.2C14.4093 20.9625 15.8343 22.3875 17.5968 22.3969H30.3937C32.1562 22.3969 33.5905 20.9625 33.5999 19.2ZM17.5968 19.2V16.0031H30.3937L30.4124 19.2H17.5968Z" fill="#CCC3CF"/>
</svg>
