<svg width="48" height="48" viewBox="0 0 48 48" fill="none" xmlns="http://www.w3.org/2000/svg">
<path d="M17.5969 30.4031H4.8C2.14687 30.4031 0 28.2562 0 25.6031V4.8C0 2.14687 2.14687 0 4.8 0H17.5969C20.25 0 22.3969 2.14687 22.3969 4.8V25.6031C22.3969 28.2562 20.25 30.4031 17.5969 30.4031ZM4.8 3.19687C3.90937 3.19687 3.19687 3.91875 3.19687 4.8V25.6031C3.20625 26.4844 3.91875 27.1969 4.8 27.1969H17.5969C18.4875 27.1969 19.2 26.475 19.2 25.5937V4.8C19.2 3.90937 18.4781 3.19687 17.5969 3.19687H4.8Z" fill="#CCC3CF"/>
<path d="M17.5969 48H4.8C2.14687 48 0 45.8531 0 43.2V38.4C0 35.7469 2.14687 33.6 4.8 33.6H17.5969C20.25 33.6 22.3969 35.7469 22.3969 38.4V43.2C22.3969 45.8531 20.25 48 17.5969 48ZM4.8 36.7969C3.90937 36.7969 3.19687 37.5187 3.19687 38.4V43.2C3.19687 44.0906 3.91875 44.8031 4.8 44.8031H17.5969C18.4875 44.8031 19.2 44.0812 19.2 43.2V38.4C19.2 37.5094 18.4781 36.7969 17.5969 36.7969H4.8Z" fill="#CCC3CF"/>
<path d="M43.1999 48H30.403C27.7499 48 25.603 45.8531 25.603 43.2V22.3969C25.603 19.7437 27.7499 17.5969 30.403 17.5969H43.1999C45.853 17.5969 47.9999 19.7437 47.9999 22.3969V43.2C47.9999 45.8531 45.853 48 43.1999 48ZM30.403 20.8031C29.5124 20.8031 28.7999 21.525 28.7999 22.4062V43.2C28.7999 44.0906 29.5218 44.8031 30.403 44.8031H43.1999C44.0905 44.8031 44.803 44.0812 44.803 43.2V22.3969C44.803 21.5062 44.0811 20.7937 43.1999 20.7937L30.403 20.8031Z" fill="#CCC3CF"/>
<path d="M43.1999 14.4H30.403C27.7499 14.4 25.603 12.2531 25.603 9.6V4.8C25.603 2.14688 27.7499 0 30.403 0H43.1999C45.853 0 47.9999 2.14688 47.9999 4.8V9.6C47.9999 12.2531 45.853 14.4 43.1999 14.4ZM30.403 3.19687C29.5124 3.19687 28.7999 3.91875 28.7999 4.8V9.6C28.7999 10.4906 29.5218 11.2031 30.403 11.2031H43.1999C44.0905 11.2031 44.803 10.4812 44.803 9.6V4.8C44.803 3.90938 44.0811 3.19687 43.1999 3.19687H30.403Z" fill="#CCC3CF"/>
</svg>
