<svg width="894" height="678" viewBox="0 0 894 678" fill="none" xmlns="http://www.w3.org/2000/svg">
<path d="M296.297 0L238.187 110.446L327.587 281.542L475.736 0H296.297Z" fill="#562865"/>
<path d="M545.34 259.836C479.567 225.362 398.469 250.26 363.986 315.379C329.503 381.136 354.407 462.215 419.541 496.689L545.34 259.836Z" fill="#562865"/>
<path d="M0 0L148.149 281.542L238.187 110.446L180.077 0H0Z" fill="#562865"/>
<path d="M141.763 678C220.056 678 283.526 614.546 283.526 536.271C283.526 457.997 220.056 394.542 141.763 394.542C63.4694 394.542 0 457.997 0 536.271C0 614.546 63.4694 678 141.763 678Z" fill="#562865"/>
<path d="M752.237 283.458C830.531 283.458 894 220.003 894 141.729C894 63.4542 830.531 0 752.237 0C673.944 0 610.474 63.4542 610.474 141.729C610.474 220.003 673.944 283.458 752.237 283.458Z" fill="#D85A5A"/>
<path d="M418.264 678H597.703L655.813 567.554L566.413 396.458L418.264 678Z" fill="#562865"/>
<path d="M655.813 567.554L713.923 678H894L745.852 396.458L655.813 567.554Z" fill="#562865"/>
</svg>
