<svg width="128" height="128" viewBox="0 0 128 128" fill="none" xmlns="http://www.w3.org/2000/svg">
<g clip-path="url(#clip0_18_104)">
<path d="M76.7949 102.36H46.9566C46.6817 102.335 46.4068 102.335 46.1319 102.36C43.7828 102.585 42.0585 104.684 42.2834 107.033C42.5083 109.382 44.6075 111.107 46.9566 110.882H76.7949C77.0698 110.907 77.3447 110.907 77.6196 110.882C79.9687 110.657 81.693 108.558 81.4681 106.209C81.2432 103.859 79.144 102.135 76.7949 102.36Z" fill="#D85A5A"/>
<path d="M34.1365 102.36H25.6148C25.3399 102.335 25.065 102.335 24.7901 102.36C22.441 102.585 20.7167 104.684 20.9416 107.033C21.1665 109.382 23.2657 111.107 25.6148 110.882H34.1365C34.4113 110.907 34.6862 110.907 34.9611 110.882C37.3102 110.657 39.0345 108.558 38.8096 106.209C38.5597 103.859 36.4855 102.135 34.1365 102.36Z" fill="#D85A5A"/>
<path d="M20.9416 43.1831C21.1665 45.5322 23.2657 47.2565 25.6148 47.0316H46.9314C48.9556 46.8317 50.58 45.2323 50.7799 43.1831C51.0048 40.834 49.2805 38.7349 46.9314 38.51H25.6148C25.3399 38.485 25.065 38.485 24.7901 38.51C22.441 38.7349 20.7167 40.834 20.9416 43.1831Z" fill="#D85A5A"/>
<path d="M110.907 81.0434V68.2484C110.907 61.1761 105.184 55.4534 98.1121 55.4534H29.8888C22.8165 55.4534 17.0938 61.1761 17.0938 68.2484V81.0434C17.0938 88.1156 22.8165 93.8384 29.8888 93.8384H98.1121C105.159 93.8384 110.907 88.1156 110.907 81.0434ZM25.6154 81.0434V68.2484C25.6154 65.8743 27.5397 63.975 29.8888 63.975H98.1121C100.486 63.975 102.385 65.8993 102.385 68.2484V81.0434C102.385 83.4175 100.461 85.3167 98.1121 85.3167H29.8888C27.5147 85.3167 25.6154 83.4175 25.6154 81.0434Z" fill="#D85A5A"/>
<path d="M4.69485 25.9899C7.04394 25.7649 8.76826 23.6658 8.54335 21.3167C8.54335 14.2444 14.2661 8.52167 21.3384 8.52167H106.63C113.702 8.52167 119.425 14.2444 119.425 21.3167V89.565C119.425 91.9391 121.349 93.8384 123.698 93.8384C126.073 93.8384 127.972 91.9141 127.972 89.565V21.3167C127.947 9.54628 118.426 0.0249902 106.655 0H21.3384C9.56795 0.0249902 0.0466626 9.54628 0.0216724 21.3167C-0.00331788 21.5916 -0.00331788 21.8665 0.0216724 22.1414C0.246585 24.4904 2.34577 26.2148 4.69485 25.9899Z" fill="#D85A5A"/>
<path d="M127.975 105.809C127.75 103.46 125.651 101.735 123.301 101.96C120.952 102.185 119.228 104.284 119.453 106.633C119.453 113.706 113.73 119.428 106.658 119.428H21.3413C14.269 119.428 8.54628 113.706 8.54628 106.633V38.385C8.57127 38.1101 8.57127 37.8353 8.54628 37.5604C8.32137 35.2113 6.22219 33.487 3.87311 33.7119C1.52402 33.9368 -0.200304 36.036 0.0246085 38.385V106.633C0.0495987 118.404 9.57088 127.925 21.3413 127.95H106.658C118.428 127.925 127.95 118.404 127.975 106.633C128 106.358 128 106.084 127.975 105.809Z" fill="#D85A5A"/>
<path d="M25.6143 25.59H34.161C36.1852 25.3901 37.8095 23.7907 38.0095 21.7415C38.2344 19.3925 36.51 17.2933 34.161 17.0684H25.6143C23.5901 17.2683 21.9657 18.8677 21.7658 20.9169C21.5409 23.2659 23.2652 25.3651 25.6143 25.59Z" fill="#D85A5A"/>
<path d="M102.46 25.59C102.734 25.615 103.009 25.615 103.284 25.59C105.633 25.3651 107.358 23.2659 107.133 20.9168C106.908 18.5677 104.809 16.8434 102.46 17.0683C102.185 17.0433 101.91 17.0433 101.635 17.0683C99.2858 17.2932 97.5614 19.3924 97.7863 21.7415C98.0112 24.0906 100.11 25.8149 102.46 25.59Z" fill="#D85A5A"/>
<path d="M89.6158 25.59C91.64 25.3901 93.2644 23.7907 93.4643 21.7415C93.6892 19.3924 91.9649 17.2932 89.6158 17.0683C89.3409 17.0433 89.066 17.0433 88.7911 17.0683C86.442 17.2932 84.7177 19.3924 84.9426 21.7415C85.1925 24.0906 87.2667 25.8149 89.6158 25.59Z" fill="#D85A5A"/>
</g>
<defs>
<clipPath id="clip0_18_104">
<rect width="128" height="127.95" fill="white"/>
</clipPath>
</defs>
</svg>
