<svg width="23" height="26" viewBox="0 0 23 26" fill="none" xmlns="http://www.w3.org/2000/svg">
<path d="M5.94503 25.7187C2.71403 25.848 0.12924 23.2632 0 20.1614C0 20.0322 0 20.0322 0 19.9029V5.81579C0 4.26491 0.646199 2.84327 1.80936 1.68012C2.84327 0.646199 4.39415 0 5.94503 0H14.0871C14.2164 0 14.3456 0 14.4749 0H14.6041C14.8626 0 15.1211 0.12924 15.2503 0.25848L21.8415 7.10819C21.9708 7.23743 22.1 7.49591 22.1 7.75439V19.7737C22.1 23.0047 19.5152 25.5895 16.2842 25.5895L5.94503 25.7187ZM5.94503 1.9386C3.74795 1.9386 2.06784 3.61871 1.9386 5.81579V19.7737C1.9386 21.8415 3.48947 23.6509 5.68655 23.6509C5.81579 23.6509 5.81579 23.6509 5.94503 23.6509H16.2842C17.3181 23.6509 18.2228 23.2632 18.9982 22.4877C19.7737 21.7123 20.1614 20.8076 20.1614 19.7737V9.04678H18.9982H17.4474C15.2503 9.04678 13.3117 7.23743 13.1825 4.91111V4.65263V1.9386H5.94503ZM15.1211 4.78187C15.1211 6.07427 16.155 7.10819 17.4474 7.10819H18.9982L15.1211 3.10175V4.78187ZM9.82222 17.4474V17.3181V15.1211H7.62515C7.10819 15.1211 6.59123 14.6041 6.59123 14.0871C6.59123 13.5702 6.97895 13.1825 7.36667 13.1825H7.49591H9.69298V10.9854C9.69298 10.4684 10.0807 10.0807 10.7269 10.0807C11.2439 10.0807 11.6316 10.4684 11.6316 10.8561V10.9854V13.1825H13.8287C14.4749 13.1825 14.8626 13.5702 14.8626 14.0871C14.8626 14.6041 14.4749 14.9918 14.0871 14.9918H13.9579H11.7608V17.1889C11.7608 17.7058 11.3731 18.0936 10.7269 18.0936C10.3392 18.2228 9.95146 17.8351 9.82222 17.4474Z" fill="#401C4C"/>
</svg>
