<svg width="58" height="58" viewBox="0 0 58 58" fill="none" xmlns="http://www.w3.org/2000/svg">
<g clip-path="url(#clip0_18_257)">
<path d="M34.7974 46.3819H21.2769C21.1523 46.3705 21.0277 46.3705 20.9032 46.3819C19.8388 46.4838 19.0574 47.435 19.1593 48.4994C19.2612 49.5638 20.2124 50.3452 21.2769 50.2432H34.7974C34.9219 50.2546 35.0465 50.2546 35.1711 50.2432C36.2355 50.1413 37.0168 49.1901 36.9149 48.1257C36.813 47.0613 35.8618 46.2799 34.7974 46.3819Z" fill="white"/>
<path d="M15.4673 46.3819H11.606C11.4814 46.3705 11.3568 46.3705 11.2323 46.3819C10.1679 46.4838 9.38652 47.435 9.48843 48.4994C9.59034 49.5638 10.5415 50.3452 11.606 50.2432H15.4673C15.5919 50.2546 15.7165 50.2546 15.841 50.2432C16.9055 50.1413 17.6868 49.1901 17.5849 48.1257C17.4716 47.0613 16.5318 46.2799 15.4673 46.3819Z" fill="white"/>
<path d="M9.48843 19.5673C9.59034 20.6317 10.5415 21.4131 11.606 21.3112H21.2651C22.1823 21.2206 22.9183 20.4959 23.0089 19.5673C23.1108 18.5029 22.3295 17.5517 21.2651 17.4498H11.606C11.4814 17.4385 11.3568 17.4385 11.2323 17.4498C10.1679 17.5517 9.38652 18.5029 9.48843 19.5673Z" fill="white"/>
<path d="M50.2543 36.7228V30.9251C50.2543 27.7204 47.6612 25.1273 44.4566 25.1273H13.5429C10.3382 25.1273 7.74512 27.7204 7.74512 30.9251V36.7228C7.74512 39.9274 10.3382 42.5205 13.5429 42.5205H44.4566C47.6498 42.5205 50.2543 39.9274 50.2543 36.7228ZM11.6065 36.7228V30.9251C11.6065 29.8493 12.4784 28.9887 13.5429 28.9887H44.4566C45.5323 28.9887 46.3929 29.8606 46.3929 30.9251V36.7228C46.3929 37.7985 45.521 38.6591 44.4566 38.6591H13.5429C12.4671 38.6591 11.6065 37.7985 11.6065 36.7228Z" fill="white"/>
<path d="M2.12798 11.7766C3.19241 11.6747 3.97374 10.7235 3.87183 9.65912C3.87183 6.45451 6.46496 3.86138 9.66956 3.86138H48.3174C51.522 3.86138 54.1151 6.45451 54.1151 9.65912V40.5841C54.1151 41.6599 54.987 42.5205 56.0514 42.5205C57.1272 42.5205 57.9878 41.6486 57.9878 40.5841V9.65912C57.9765 4.32565 53.6621 0.0113237 48.3287 0H9.66956C4.3361 0.0113237 0.0217696 4.32565 0.0104459 9.65912C-0.0008778 9.78368 -0.0008778 9.90824 0.0104459 10.0328C0.112359 11.0972 1.06355 11.8786 2.12798 11.7766Z" fill="white"/>
<path d="M57.9882 47.9445C57.8863 46.8801 56.9351 46.0988 55.8707 46.2007C54.8063 46.3026 54.0249 47.2538 54.1269 48.3182C54.1269 51.5228 51.5337 54.116 48.3291 54.116H9.67001C6.4654 54.116 3.87227 51.5228 3.87227 48.3182V17.3932C3.8836 17.2686 3.8836 17.1441 3.87227 17.0195C3.77036 15.9551 2.81917 15.1737 1.75474 15.2757C0.690313 15.3776 -0.091022 16.3288 0.0108913 17.3932V48.3182C0.022215 53.6517 4.33655 57.966 9.67001 57.9773H48.3291C53.6626 57.966 57.9769 53.6517 57.9882 48.3182C57.9996 48.1937 57.9996 48.0691 57.9882 47.9445Z" fill="white"/>
<path d="M11.6063 11.5955H15.479C16.3962 11.5049 17.1323 10.7802 17.2229 9.85166C17.3248 8.78723 16.5434 7.83604 15.479 7.73413H11.6063C10.6891 7.82472 9.95304 8.54944 9.86245 9.47798C9.76054 10.5424 10.5419 11.4936 11.6063 11.5955Z" fill="white"/>
<path d="M46.4263 11.5954C46.5508 11.6067 46.6754 11.6067 46.8 11.5954C47.8644 11.4935 48.6457 10.5423 48.5438 9.47789C48.4419 8.41346 47.4907 7.63212 46.4263 7.73404C46.3017 7.72271 46.1772 7.72271 46.0526 7.73404C44.9882 7.83595 44.2068 8.78714 44.3087 9.85157C44.4107 10.916 45.3618 11.6973 46.4263 11.5954Z" fill="white"/>
<path d="M40.6069 11.5955C41.5242 11.5049 42.2602 10.7802 42.3508 9.85161C42.4527 8.78718 41.6714 7.83599 40.6069 7.73408C40.4824 7.72276 40.3578 7.72276 40.2333 7.73408C39.1688 7.83599 38.3875 8.78718 38.4894 9.85161C38.6026 10.916 39.5425 11.6974 40.6069 11.5955Z" fill="white"/>
</g>
<defs>
<clipPath id="clip0_18_257">
<rect width="58" height="57.9774" fill="white"/>
</clipPath>
</defs>
</svg>
