<svg width="52" height="58" viewBox="0 0 52 58" fill="none" xmlns="http://www.w3.org/2000/svg">
<path d="M46.7527 29C47.274 28.2962 47.7563 27.6054 48.1994 26.9016C51.6012 21.5578 52.2659 16.7483 50.0893 13.3726C47.9257 9.99685 43.2727 8.58921 37.0165 9.3973C36.7949 9.42337 36.5603 9.46247 36.3387 9.48854C36.2475 9.28 36.1563 9.07146 36.052 8.86292C33.354 3.15416 29.6785 0 25.6641 0C21.6497 0 17.9612 3.15416 15.2763 8.86292C15.185 9.07146 15.0808 9.28 14.9895 9.48854C14.7549 9.44944 14.5333 9.42337 14.3118 9.3973C8.04255 8.57618 3.40255 9.99685 1.23895 13.3856C-0.924645 16.7744 -0.259925 21.5708 3.10277 26.9146C3.54592 27.6184 4.02817 28.3222 4.54952 29.013C4.02817 29.7169 3.54592 30.4076 3.10277 31.1115C-0.246892 36.4292 -0.911611 41.2517 1.25199 44.6144C3.01154 47.3775 6.41334 48.8243 11.0142 48.8243C12.1091 48.8243 13.2169 48.7461 14.3118 48.6027C14.5333 48.5766 14.7679 48.5375 14.9895 48.5115C15.0808 48.72 15.172 48.9285 15.2763 49.1371C17.9742 54.8458 21.6497 58 25.6641 58C29.6785 58 33.3671 54.8458 36.052 49.1371C36.1432 48.9285 36.2475 48.72 36.3387 48.5115C36.5734 48.5506 36.7949 48.5766 37.0165 48.6027C38.1113 48.7461 39.2062 48.8243 40.314 48.8243C44.9149 48.8243 48.3167 47.3775 50.0763 44.6144C52.2399 41.2256 51.5752 36.4292 48.2125 31.0854C47.7563 30.3946 47.274 29.6908 46.7527 29ZM37.3554 11.978C42.4776 11.3133 46.3226 12.3299 47.8866 14.7802C49.4507 17.2306 48.7729 21.1407 46.0098 25.52C45.723 25.9762 45.4102 26.4454 45.0844 26.9016C43.377 24.9204 41.5131 23.0957 39.519 21.4274C39.1149 18.2081 38.385 15.0539 37.3293 11.991H37.3554V11.978ZM39.8839 25.2072C41.1612 26.3933 42.3603 27.6575 43.4812 29C42.3603 30.3294 41.1612 31.5937 39.8839 32.7928C39.9621 31.5416 40.0012 30.2773 40.0012 29C40.0012 27.7227 39.9621 26.4584 39.8839 25.2072ZM36.5082 19.0683C35.5046 18.3254 34.4619 17.6085 33.3801 16.9178C31.8682 15.9533 30.3302 15.0539 28.7792 14.2589C30.7082 13.4899 32.6893 12.8773 34.7095 12.4342C35.5046 14.5978 36.0911 16.8135 36.5082 19.0683ZM17.6354 9.97079C19.8381 5.27865 22.7576 2.60674 25.6641 2.60674C28.5707 2.60674 31.4902 5.29169 33.6929 9.97079C33.6929 9.98382 33.6929 9.98382 33.7059 9.99685C30.9428 10.6616 28.2448 11.587 25.6511 12.747C23.0574 11.5739 20.3594 10.6616 17.5963 9.99685C17.6223 9.99685 17.6223 9.98382 17.6354 9.97079ZM16.5927 12.4472C18.6129 12.9034 20.594 13.516 22.523 14.2719C20.985 15.08 19.4471 15.9663 17.9351 16.9308C16.8664 17.6216 15.8237 18.3384 14.807 19.0813C15.2241 16.8135 15.8237 14.5978 16.5927 12.4472ZM3.42862 14.7672C4.67985 12.8121 7.39086 11.7564 11.0403 11.7564C12.0178 11.7564 12.9954 11.8216 13.9729 11.9519H13.999C12.9432 15.0148 12.2133 18.182 11.8093 21.3883C9.8021 23.0566 7.93828 24.8944 6.23086 26.8625C5.90502 26.4193 5.59221 25.9631 5.30547 25.4939C2.55536 21.1407 1.8776 17.2175 3.42862 14.7672ZM11.4574 32.7928C10.1801 31.6067 8.98098 30.3425 7.86008 29C8.98098 27.6706 10.1801 26.3933 11.4574 25.2072C11.3792 26.4584 11.3401 27.7227 11.3401 29C11.3401 30.2773 11.3792 31.5416 11.4574 32.7928ZM13.9599 46.022C12.9823 46.1524 12.0048 46.2175 11.0273 46.2175C7.3648 46.2175 4.66682 45.1748 3.41558 43.2067C1.85154 40.7564 2.52929 36.8463 5.29244 32.467C5.57918 32.0108 5.89199 31.5416 6.21783 31.0854C7.92525 33.0535 9.8021 34.8912 11.7963 36.5596C12.2003 39.7789 12.9302 42.933 13.9859 45.996C13.9859 46.022 13.9729 46.022 13.9599 46.022ZM14.807 38.9317C15.8106 39.6746 16.8533 40.3915 17.9351 41.0692C19.4601 42.0467 20.9981 42.933 22.523 43.7411C20.594 44.5101 18.6129 45.1227 16.5927 45.5658C15.8237 43.4022 15.2241 41.1865 14.807 38.9317ZM33.6929 48.0292C31.4902 52.7213 28.5707 55.3933 25.6641 55.3933C22.7576 55.3933 19.8381 52.7083 17.6354 48.0292C17.6354 48.0162 17.6354 48.0162 17.6223 48.0031C20.3855 47.3384 23.0835 46.413 25.6772 45.253C28.2709 46.4261 30.9689 47.3384 33.732 48.0031C33.7059 48.0031 33.7059 48.0162 33.6929 48.0292ZM34.7356 45.5528C32.7154 45.0966 30.7342 44.484 28.8053 43.7281C30.3432 42.92 31.8812 42.0337 33.3931 41.0692C34.4619 40.3784 35.5046 39.6616 36.5212 38.9187C36.1041 41.1865 35.5176 43.4022 34.7356 45.5528ZM31.9855 38.8795C29.9522 40.1829 27.8408 41.356 25.6641 42.3856C23.4875 41.3429 21.376 40.1829 19.3428 38.8795C17.5832 37.7586 15.8888 36.5465 14.2727 35.2301C13.8165 31.0854 13.8165 26.9016 14.2727 22.7569C17.7787 19.9416 21.6106 17.5434 25.6772 15.6144C27.8538 16.644 29.9653 17.8171 31.9985 19.1204C33.7581 20.2413 35.4525 21.4535 37.0686 22.7699C37.2902 24.8422 37.4075 26.9276 37.4075 29C37.4075 31.0854 37.2902 33.1577 37.0686 35.2301C35.4264 36.5465 33.732 37.7586 31.9855 38.8795ZM47.8997 43.2328C46.3356 45.6831 42.5037 46.7128 37.3684 46.0351H37.3423C38.3981 42.9721 39.128 39.8049 39.532 36.5986C41.5392 34.9303 43.403 33.0926 45.1104 31.1245C45.4232 31.5807 45.7361 32.0369 46.0228 32.5061C48.7859 36.8593 49.4637 40.7825 47.8997 43.2328Z" fill="white"/>
<path d="M25.6639 23.8517C22.8226 23.8517 20.5156 26.1587 20.5156 29C20.5156 31.8413 22.8226 34.1483 25.6639 34.1483C28.5053 34.1483 30.8123 31.8413 30.8123 29C30.8123 26.1587 28.5053 23.8517 25.6639 23.8517ZM25.6639 31.5546C24.2563 31.5546 23.1093 30.4076 23.1093 29C23.1093 27.5924 24.2563 26.4454 25.6639 26.4454C27.0716 26.4454 28.2186 27.5924 28.2186 29C28.2186 30.4076 27.0716 31.5546 25.6639 31.5546Z" fill="white"/>
</svg>
